<?xml version="1.0" encoding="UTF-8" standalone="no"?>
<!DOCTYPE svg PUBLIC "-//W3C//DTD SVG 1.1//EN"
 "http://www.w3.org/Graphics/SVG/1.1/DTD/svg11.dtd">
<!-- Generated by graphviz version 2.40.1 (20161225.0304)
 -->
<!-- Title: dashboards Pages: 1 -->
<svg width="746pt" height="869pt"
 viewBox="0.00 0.00 746.00 869.00" xmlns="http://www.w3.org/2000/svg" xmlns:xlink="http://www.w3.org/1999/xlink">
<g id="graph0" class="graph" transform="scale(1 1) rotate(0) translate(4 865)">
<title>dashboards</title>
<polygon fill="#ffffff" stroke="transparent" points="-4,4 -4,-865 742,-865 742,4 -4,4"/>
<!-- dashboards -->
<g id="node1" class="node">
<title>dashboards</title>
<polygon fill="#efefef" stroke="transparent" points="293,-502.5 293,-537.5 498,-537.5 498,-502.5 293,-502.5"/>
<polygon fill="none" stroke="#000000" points="293,-502.5 293,-537.5 498,-537.5 498,-502.5 293,-502.5"/>
<text text-anchor="start" x="299.8553" y="-515.3" font-family="Arial Bold" font-size="18.00" fill="#000000">dashboards</text>
<text text-anchor="start" x="393.8909" y="-515.3" font-family="Arial" font-size="14.00" fill="#000000"> </text>
<text text-anchor="start" x="397.7815" y="-515.3" font-family="Arial" font-size="14.00" fill="#666666">[BASE TABLE]</text>
<polygon fill="none" stroke="#000000" points="293,-472.5 293,-502.5 498,-502.5 498,-472.5 293,-472.5"/>
<text text-anchor="start" x="300" y="-483.9" font-family="Arial" font-size="14.00" fill="#000000">id </text>
<text text-anchor="start" x="314.7798" y="-483.9" font-family="Arial" font-size="14.00" fill="#666666">[char(36)]</text>
<polygon fill="none" stroke="#000000" points="293,-442.5 293,-472.5 498,-472.5 498,-442.5 293,-442.5"/>
<text text-anchor="start" x="300" y="-453.9" font-family="Arial" font-size="14.00" fill="#000000">user_id </text>
<text text-anchor="start" x="349.7882" y="-453.9" font-family="Arial" font-size="14.00" fill="#666666">[char(36)]</text>
<polygon fill="none" stroke="#000000" points="293,-412.5 293,-442.5 498,-442.5 498,-412.5 293,-412.5"/>
<text text-anchor="start" x="300" y="-423.9" font-family="Arial" font-size="14.00" fill="#000000">name </text>
<text text-anchor="start" x="338.899" y="-423.9" font-family="Arial" font-size="14.00" fill="#666666">[varchar(50)]</text>
<polygon fill="none" stroke="#000000" points="293,-382.5 293,-412.5 498,-412.5 498,-382.5 293,-382.5"/>
<text text-anchor="start" x="300" y="-393.9" font-family="Arial" font-size="14.00" fill="#000000">description </text>
<text text-anchor="start" x="371.568" y="-393.9" font-family="Arial" font-size="14.00" fill="#666666">[varchar(255)]</text>
<polygon fill="none" stroke="#000000" points="293,-352.5 293,-382.5 498,-382.5 498,-352.5 293,-352.5"/>
<text text-anchor="start" x="300" y="-363.9" font-family="Arial" font-size="14.00" fill="#000000">created_at </text>
<text text-anchor="start" x="370.028" y="-363.9" font-family="Arial" font-size="14.00" fill="#666666">[datetime]</text>
<polygon fill="none" stroke="#000000" points="293,-322.5 293,-352.5 498,-352.5 498,-322.5 293,-322.5"/>
<text text-anchor="start" x="300" y="-333.9" font-family="Arial" font-size="14.00" fill="#000000">deleted_at </text>
<text text-anchor="start" x="369.2566" y="-333.9" font-family="Arial" font-size="14.00" fill="#666666">[datetime]</text>
<polygon fill="none" stroke="#000000" stroke-width="3" points="291,-321.5 291,-539.5 499,-539.5 499,-321.5 291,-321.5"/>
</g>
<!-- users -->
<g id="node3" class="node">
<title>users</title>
<polygon fill="#efefef" stroke="transparent" points="287,-162.5 287,-197.5 505,-197.5 505,-162.5 287,-162.5"/>
<polygon fill="none" stroke="#000000" points="287,-162.5 287,-197.5 505,-197.5 505,-162.5 287,-162.5"/>
<text text-anchor="start" x="325.3708" y="-175.3" font-family="Arial Bold" font-size="18.00" fill="#000000">users</text>
<text text-anchor="start" x="369.3754" y="-175.3" font-family="Arial" font-size="14.00" fill="#000000"> </text>
<text text-anchor="start" x="373.266" y="-175.3" font-family="Arial" font-size="14.00" fill="#666666">[BASE TABLE]</text>
<polygon fill="none" stroke="#000000" points="287,-132.5 287,-162.5 505,-162.5 505,-132.5 287,-132.5"/>
<text text-anchor="start" x="294" y="-143.9" font-family="Arial" font-size="14.00" fill="#000000">id </text>
<text text-anchor="start" x="308.7798" y="-143.9" font-family="Arial" font-size="14.00" fill="#666666">[char(36)]</text>
<polygon fill="none" stroke="#000000" points="287,-102.5 287,-132.5 505,-132.5 505,-102.5 287,-102.5"/>
<text text-anchor="start" x="294" y="-113.9" font-family="Arial" font-size="14.00" fill="#000000">name </text>
<text text-anchor="start" x="332.899" y="-113.9" font-family="Arial" font-size="14.00" fill="#666666">[varchar(36)]</text>
<polygon fill="none" stroke="#000000" points="287,-72.5 287,-102.5 505,-102.5 505,-72.5 287,-72.5"/>
<text text-anchor="start" x="293.6985" y="-83.9" font-family="Arial" font-size="14.00" fill="#000000">hashed_password </text>
<text text-anchor="start" x="411.1823" y="-83.9" font-family="Arial" font-size="14.00" fill="#666666">[varchar(255)]</text>
<polygon fill="none" stroke="#000000" points="287,-42.5 287,-72.5 505,-72.5 505,-42.5 287,-42.5"/>
<text text-anchor="start" x="294" y="-53.9" font-family="Arial" font-size="14.00" fill="#000000">deleted_at </text>
<text text-anchor="start" x="363.2566" y="-53.9" font-family="Arial" font-size="14.00" fill="#666666">[datetime]</text>
</g>
<!-- dashboards&#45;&gt;users -->
<g id="edge3" class="edge">
<title>dashboards:user_id&#45;&gt;users:id</title>
<path fill="none" stroke="#000000" d="M508.0889,-456.6011C566.2691,-445.5441 538.1088,-335.1972 489,-277 427.648,-204.2937 339.352,-313.7063 278,-241 251.2005,-209.2408 236.4444,-147.5 287,-147.5"/>
<polygon fill="#000000" stroke="#000000" points="507.9605,-456.6125 497.6006,-453.0178 502.9803,-457.0562 498,-457.5 498,-457.5 498,-457.5 502.9803,-457.0562 498.3994,-461.9822 507.9605,-456.6125 507.9605,-456.6125"/>
<text text-anchor="start" x="504.945" y="-467.5" font-family="Arial" font-size="10.00" fill="#000000">FOREIGN KEY (user_id) REFERENCES users (id)</text>
</g>
<!-- dashboards&#45;&gt;users -->
<g id="edge4" class="edge">
<title>dashboards:user_id&#45;&gt;users:id</title>
<path fill="none" stroke="#000000" stroke-dasharray="5,2" d="M508.6147,-456.8838C584.7912,-447.6014 556.5656,-335.7385 507,-277 445.648,-204.2937 357.352,-313.7063 296,-241 269.3051,-209.3648 254.5599,-147.9819 286.6207,-147.5028"/>
<polygon fill="#000000" stroke="#000000" points="508.2434,-456.9058 497.9938,-453.0076 503.2522,-457.2027 498.2611,-457.4997 498.2611,-457.4997 498.2611,-457.4997 503.2522,-457.2027 498.5283,-461.9917 508.2434,-456.9058 508.2434,-456.9058"/>
<text text-anchor="start" x="505.5856" y="-441.4997" font-family="Arial" font-size="10.00" fill="#000000">Additional Relation</text>
</g>
<!-- task_status -->
<g id="node2" class="node">
<title>task_status</title>
<polygon fill="#efefef" stroke="transparent" points="295,-782.5 295,-817.5 497,-817.5 497,-782.5 295,-782.5"/>
<polygon fill="none" stroke="#000000" points="295,-782.5 295,-817.5 497,-817.5 497,-782.5 295,-782.5"/>
<text text-anchor="start" x="301.8574" y="-795.3" font-family="Arial Bold" font-size="18.00" fill="#000000">task_status</text>
<text text-anchor="start" x="392.8888" y="-795.3" font-family="Arial" font-size="14.00" fill="#000000"> </text>
<text text-anchor="start" x="396.7794" y="-795.3" font-family="Arial" font-size="14.00" fill="#666666">[BASE TABLE]</text>
<polygon fill="none" stroke="#000000" points="295,-752.5 295,-782.5 497,-782.5 497,-752.5 295,-752.5"/>
<text text-anchor="start" x="302" y="-763.9" font-family="Arial" font-size="14.00" fill="#000000">id </text>
<text text-anchor="start" x="316.7798" y="-763.9" font-family="Arial" font-size="14.00" fill="#666666">[char(36)]</text>
<polygon fill="none" stroke="#000000" points="295,-722.5 295,-752.5 497,-752.5 497,-722.5 295,-722.5"/>
<text text-anchor="start" x="302" y="-733.9" font-family="Arial" font-size="14.00" fill="#000000">dashboard_id </text>
<text text-anchor="start" x="390.7012" y="-733.9" font-family="Arial" font-size="14.00" fill="#666666">[char(36)]</text>
<polygon fill="none" stroke="#000000" points="295,-692.5 295,-722.5 497,-722.5 497,-692.5 295,-692.5"/>
<text text-anchor="start" x="302" y="-703.9" font-family="Arial" font-size="14.00" fill="#000000">name </text>
<text text-anchor="start" x="340.899" y="-703.9" font-family="Arial" font-size="14.00" fill="#666666">[varchar(50)]</text>
<polygon fill="none" stroke="#000000" points="295,-662.5 295,-692.5 497,-692.5 497,-662.5 295,-662.5"/>
<text text-anchor="start" x="302" y="-673.9" font-family="Arial" font-size="14.00" fill="#000000">deleted_at </text>
<text text-anchor="start" x="371.2566" y="-673.9" font-family="Arial" font-size="14.00" fill="#666666">[datetime]</text>
</g>
<!-- task_status&#45;&gt;dashboards -->
<g id="edge1" class="edge">
<title>task_status:dashboard_id&#45;&gt;dashboards:id</title>
<path fill="none" stroke="#000000" d="M284.7438,-736.6734C236.0936,-728.2551 254.4831,-657.5979 286,-620 344.8641,-549.7785 430.1359,-654.2215 489,-584 516.5523,-551.1317 531.8889,-487.5 498,-487.5"/>
<polygon fill="#000000" stroke="#000000" points="285.0323,-736.6966 294.6385,-741.9855 290.0162,-737.0983 295,-737.5 295,-737.5 295,-737.5 290.0162,-737.0983 295.3615,-733.0145 285.0323,-736.6966 285.0323,-736.6966"/>
<text text-anchor="start" x="7.15" y="-747.5" font-family="Arial" font-size="10.00" fill="#000000">FOREIGN KEY (dashboard_id) REFERENCES dashboards (id)</text>
</g>
<!-- task_status&#45;&gt;dashboards -->
<g id="edge2" class="edge">
<title>task_status:dashboard_id&#45;&gt;dashboards:id</title>
<path fill="none" stroke="#000000" stroke-dasharray="5,2" d="M284.4708,-735.566C255.3958,-723.3538 273.5852,-656.2831 304,-620 362.8641,-549.7785 448.1359,-654.2215 507,-584 534.4985,-551.1959 549.8289,-487.7484 498.3033,-487.5007"/>
<polygon fill="#000000" stroke="#000000" points="284.6767,-735.6056 293.6454,-741.9153 289.5865,-736.551 294.4963,-737.4965 294.4963,-737.4965 294.4963,-737.4965 289.5865,-736.551 295.3472,-733.0776 284.6767,-735.6056 284.6767,-735.6056"/>
<text text-anchor="start" x="204.8208" y="-721.4965" font-family="Arial" font-size="10.00" fill="#000000">Additional Relation</text>
</g>
</g>
</svg>
