<?xml version="1.0" encoding="UTF-8" standalone="no"?>
<!DOCTYPE svg PUBLIC "-//W3C//DTD SVG 1.1//EN"
 "http://www.w3.org/Graphics/SVG/1.1/DTD/svg11.dtd">
<!-- Generated by graphviz version 2.40.1 (20161225.0304)
 -->
<!-- Title: todo_list Pages: 1 -->
<svg width="787pt" height="1170pt"
 viewBox="0.00 0.00 787.00 1170.00" xmlns="http://www.w3.org/2000/svg" xmlns:xlink="http://www.w3.org/1999/xlink">
<g id="graph0" class="graph" transform="scale(1 1) rotate(0) translate(4 1166)">
<title>todo_list</title>
<polygon fill="#ffffff" stroke="transparent" points="-4,4 -4,-1166 783,-1166 783,4 -4,4"/>
<!-- dashboards -->
<g id="node1" class="node">
<title>dashboards</title>
<polygon fill="#efefef" stroke="transparent" points="293,-499.5 293,-534.5 498,-534.5 498,-499.5 293,-499.5"/>
<polygon fill="none" stroke="#000000" points="293,-499.5 293,-534.5 498,-534.5 498,-499.5 293,-499.5"/>
<text text-anchor="start" x="299.8553" y="-512.3" font-family="Arial Bold" font-size="18.00" fill="#000000">dashboards</text>
<text text-anchor="start" x="393.8909" y="-512.3" font-family="Arial" font-size="14.00" fill="#000000"> </text>
<text text-anchor="start" x="397.7815" y="-512.3" font-family="Arial" font-size="14.00" fill="#666666">[BASE TABLE]</text>
<polygon fill="none" stroke="#000000" points="293,-469.5 293,-499.5 498,-499.5 498,-469.5 293,-469.5"/>
<text text-anchor="start" x="300" y="-480.9" font-family="Arial" font-size="14.00" fill="#000000">id </text>
<text text-anchor="start" x="314.7798" y="-480.9" font-family="Arial" font-size="14.00" fill="#666666">[char(36)]</text>
<polygon fill="none" stroke="#000000" points="293,-439.5 293,-469.5 498,-469.5 498,-439.5 293,-439.5"/>
<text text-anchor="start" x="300" y="-450.9" font-family="Arial" font-size="14.00" fill="#000000">user_id </text>
<text text-anchor="start" x="349.7882" y="-450.9" font-family="Arial" font-size="14.00" fill="#666666">[char(36)]</text>
<polygon fill="none" stroke="#000000" points="293,-409.5 293,-439.5 498,-439.5 498,-409.5 293,-409.5"/>
<text text-anchor="start" x="300" y="-420.9" font-family="Arial" font-size="14.00" fill="#000000">name </text>
<text text-anchor="start" x="338.899" y="-420.9" font-family="Arial" font-size="14.00" fill="#666666">[varchar(50)]</text>
<polygon fill="none" stroke="#000000" points="293,-379.5 293,-409.5 498,-409.5 498,-379.5 293,-379.5"/>
<text text-anchor="start" x="300" y="-390.9" font-family="Arial" font-size="14.00" fill="#000000">description </text>
<text text-anchor="start" x="371.568" y="-390.9" font-family="Arial" font-size="14.00" fill="#666666">[varchar(255)]</text>
<polygon fill="none" stroke="#000000" points="293,-349.5 293,-379.5 498,-379.5 498,-349.5 293,-349.5"/>
<text text-anchor="start" x="300" y="-360.9" font-family="Arial" font-size="14.00" fill="#000000">created_at </text>
<text text-anchor="start" x="370.028" y="-360.9" font-family="Arial" font-size="14.00" fill="#666666">[datetime]</text>
<polygon fill="none" stroke="#000000" points="293,-319.5 293,-349.5 498,-349.5 498,-319.5 293,-319.5"/>
<text text-anchor="start" x="300" y="-330.9" font-family="Arial" font-size="14.00" fill="#000000">deleted_at </text>
<text text-anchor="start" x="369.2566" y="-330.9" font-family="Arial" font-size="14.00" fill="#666666">[datetime]</text>
</g>
<!-- users -->
<g id="node4" class="node">
<title>users</title>
<polygon fill="#efefef" stroke="transparent" points="287,-162.5 287,-197.5 505,-197.5 505,-162.5 287,-162.5"/>
<polygon fill="none" stroke="#000000" points="287,-162.5 287,-197.5 505,-197.5 505,-162.5 287,-162.5"/>
<text text-anchor="start" x="325.3708" y="-175.3" font-family="Arial Bold" font-size="18.00" fill="#000000">users</text>
<text text-anchor="start" x="369.3754" y="-175.3" font-family="Arial" font-size="14.00" fill="#000000"> </text>
<text text-anchor="start" x="373.266" y="-175.3" font-family="Arial" font-size="14.00" fill="#666666">[BASE TABLE]</text>
<polygon fill="none" stroke="#000000" points="287,-132.5 287,-162.5 505,-162.5 505,-132.5 287,-132.5"/>
<text text-anchor="start" x="294" y="-143.9" font-family="Arial" font-size="14.00" fill="#000000">id </text>
<text text-anchor="start" x="308.7798" y="-143.9" font-family="Arial" font-size="14.00" fill="#666666">[char(36)]</text>
<polygon fill="none" stroke="#000000" points="287,-102.5 287,-132.5 505,-132.5 505,-102.5 287,-102.5"/>
<text text-anchor="start" x="294" y="-113.9" font-family="Arial" font-size="14.00" fill="#000000">name </text>
<text text-anchor="start" x="332.899" y="-113.9" font-family="Arial" font-size="14.00" fill="#666666">[varchar(36)]</text>
<polygon fill="none" stroke="#000000" points="287,-72.5 287,-102.5 505,-102.5 505,-72.5 287,-72.5"/>
<text text-anchor="start" x="293.6985" y="-83.9" font-family="Arial" font-size="14.00" fill="#000000">hashed_password </text>
<text text-anchor="start" x="411.1823" y="-83.9" font-family="Arial" font-size="14.00" fill="#666666">[varchar(255)]</text>
<polygon fill="none" stroke="#000000" points="287,-42.5 287,-72.5 505,-72.5 505,-42.5 287,-42.5"/>
<text text-anchor="start" x="294" y="-53.9" font-family="Arial" font-size="14.00" fill="#000000">deleted_at </text>
<text text-anchor="start" x="363.2566" y="-53.9" font-family="Arial" font-size="14.00" fill="#666666">[datetime]</text>
</g>
<!-- dashboards&#45;&gt;users -->
<g id="edge1" class="edge">
<title>dashboards:user_id&#45;&gt;users:id</title>
<path fill="none" stroke="#000000" d="M508.2509,-453.5477C564.8708,-442.2965 537.1932,-334.1122 489,-277 427.648,-204.2937 339.352,-313.7063 278,-241 251.2005,-209.2408 236.4444,-147.5 287,-147.5"/>
<polygon fill="#000000" stroke="#000000" points="507.9571,-453.5749 497.5837,-450.0193 502.9786,-454.0374 498,-454.5 498,-454.5 498,-454.5 502.9786,-454.0374 498.4163,-458.9807 507.9571,-453.5749 507.9571,-453.5749"/>
<text text-anchor="start" x="504.945" y="-464.5" font-family="Arial" font-size="10.00" fill="#000000">FOREIGN KEY (user_id) REFERENCES users (id)</text>
</g>
<!-- dashboards&#45;&gt;users -->
<g id="edge4" class="edge">
<title>dashboards:user_id&#45;&gt;users:id</title>
<path fill="none" stroke="#000000" stroke-dasharray="5,2" d="M508.4563,-453.894C583.4983,-444.7659 555.7418,-334.7622 507,-277 445.648,-204.2937 357.352,-313.7063 296,-241 269.3051,-209.3648 254.5599,-147.9819 286.6207,-147.5028"/>
<polygon fill="#000000" stroke="#000000" points="508.2396,-453.9068 497.9904,-450.0076 503.2484,-454.2032 498.2572,-454.4997 498.2572,-454.4997 498.2572,-454.4997 503.2484,-454.2032 498.524,-458.9918 508.2396,-453.9068 508.2396,-453.9068"/>
<text text-anchor="start" x="505.5817" y="-438.4997" font-family="Arial" font-size="10.00" fill="#000000">Additional Relation</text>
</g>
<!-- task_status -->
<g id="node2" class="node">
<title>task_status</title>
<polygon fill="#efefef" stroke="transparent" points="295,-776.5 295,-811.5 497,-811.5 497,-776.5 295,-776.5"/>
<polygon fill="none" stroke="#000000" points="295,-776.5 295,-811.5 497,-811.5 497,-776.5 295,-776.5"/>
<text text-anchor="start" x="301.8574" y="-789.3" font-family="Arial Bold" font-size="18.00" fill="#000000">task_status</text>
<text text-anchor="start" x="392.8888" y="-789.3" font-family="Arial" font-size="14.00" fill="#000000"> </text>
<text text-anchor="start" x="396.7794" y="-789.3" font-family="Arial" font-size="14.00" fill="#666666">[BASE TABLE]</text>
<polygon fill="none" stroke="#000000" points="295,-746.5 295,-776.5 497,-776.5 497,-746.5 295,-746.5"/>
<text text-anchor="start" x="302" y="-757.9" font-family="Arial" font-size="14.00" fill="#000000">id </text>
<text text-anchor="start" x="316.7798" y="-757.9" font-family="Arial" font-size="14.00" fill="#666666">[char(36)]</text>
<polygon fill="none" stroke="#000000" points="295,-716.5 295,-746.5 497,-746.5 497,-716.5 295,-716.5"/>
<text text-anchor="start" x="302" y="-727.9" font-family="Arial" font-size="14.00" fill="#000000">dashboard_id </text>
<text text-anchor="start" x="390.7012" y="-727.9" font-family="Arial" font-size="14.00" fill="#666666">[char(36)]</text>
<polygon fill="none" stroke="#000000" points="295,-686.5 295,-716.5 497,-716.5 497,-686.5 295,-686.5"/>
<text text-anchor="start" x="302" y="-697.9" font-family="Arial" font-size="14.00" fill="#000000">name </text>
<text text-anchor="start" x="340.899" y="-697.9" font-family="Arial" font-size="14.00" fill="#666666">[varchar(50)]</text>
<polygon fill="none" stroke="#000000" points="295,-656.5 295,-686.5 497,-686.5 497,-656.5 295,-656.5"/>
<text text-anchor="start" x="302" y="-667.9" font-family="Arial" font-size="14.00" fill="#000000">deleted_at </text>
<text text-anchor="start" x="371.2566" y="-667.9" font-family="Arial" font-size="14.00" fill="#666666">[datetime]</text>
</g>
<!-- task_status&#45;&gt;dashboards -->
<g id="edge2" class="edge">
<title>task_status:dashboard_id&#45;&gt;dashboards:id</title>
<path fill="none" stroke="#000000" d="M284.7438,-730.6734C236.0936,-722.2551 254.4831,-651.5979 286,-614 344.8641,-543.7785 430.1359,-648.2215 489,-578 515.6958,-546.1535 530.5556,-484.5 498,-484.5"/>
<polygon fill="#000000" stroke="#000000" points="285.0323,-730.6966 294.6385,-735.9855 290.0162,-731.0983 295,-731.5 295,-731.5 295,-731.5 290.0162,-731.0983 295.3615,-727.0145 285.0323,-730.6966 285.0323,-730.6966"/>
<text text-anchor="start" x="7.15" y="-741.5" font-family="Arial" font-size="10.00" fill="#000000">FOREIGN KEY (dashboard_id) REFERENCES dashboards (id)</text>
</g>
<!-- task_status&#45;&gt;dashboards -->
<g id="edge5" class="edge">
<title>task_status:dashboard_id&#45;&gt;dashboards:id</title>
<path fill="none" stroke="#000000" stroke-dasharray="5,2" d="M284.4708,-729.566C255.3958,-717.3538 273.5852,-650.2831 304,-614 362.8641,-543.7785 448.1359,-648.2215 507,-578 533.6436,-546.2157 548.4975,-484.7407 498.2955,-484.5007"/>
<polygon fill="#000000" stroke="#000000" points="284.6767,-729.6056 293.6454,-735.9153 289.5865,-730.551 294.4963,-731.4965 294.4963,-731.4965 294.4963,-731.4965 289.5865,-730.551 295.3472,-727.0776 284.6767,-729.6056 284.6767,-729.6056"/>
<text text-anchor="start" x="204.8208" y="-715.4965" font-family="Arial" font-size="10.00" fill="#000000">Additional Relation</text>
</g>
<!-- tasks -->
<g id="node3" class="node">
<title>tasks</title>
<polygon fill="#efefef" stroke="transparent" points="310,-1083.5 310,-1118.5 482,-1118.5 482,-1083.5 310,-1083.5"/>
<polygon fill="none" stroke="#000000" points="310,-1083.5 310,-1118.5 482,-1118.5 482,-1083.5 310,-1083.5"/>
<text text-anchor="start" x="326.3689" y="-1096.3" font-family="Arial Bold" font-size="18.00" fill="#000000">tasks</text>
<text text-anchor="start" x="368.3773" y="-1096.3" font-family="Arial" font-size="14.00" fill="#000000"> </text>
<text text-anchor="start" x="372.2679" y="-1096.3" font-family="Arial" font-size="14.00" fill="#666666">[BASE TABLE]</text>
<polygon fill="none" stroke="#000000" points="310,-1053.5 310,-1083.5 482,-1083.5 482,-1053.5 310,-1053.5"/>
<text text-anchor="start" x="317" y="-1064.9" font-family="Arial" font-size="14.00" fill="#000000">id </text>
<text text-anchor="start" x="331.7798" y="-1064.9" font-family="Arial" font-size="14.00" fill="#666666">[char(36)]</text>
<polygon fill="none" stroke="#000000" points="310,-1023.5 310,-1053.5 482,-1053.5 482,-1023.5 310,-1023.5"/>
<text text-anchor="start" x="317" y="-1034.9" font-family="Arial" font-size="14.00" fill="#000000">task_status_id </text>
<text text-anchor="start" x="410.3646" y="-1034.9" font-family="Arial" font-size="14.00" fill="#666666">[char(36)]</text>
<polygon fill="none" stroke="#000000" points="310,-993.5 310,-1023.5 482,-1023.5 482,-993.5 310,-993.5"/>
<text text-anchor="start" x="317" y="-1004.9" font-family="Arial" font-size="14.00" fill="#000000">name </text>
<text text-anchor="start" x="355.899" y="-1004.9" font-family="Arial" font-size="14.00" fill="#666666">[varchar(50)]</text>
<polygon fill="none" stroke="#000000" points="310,-963.5 310,-993.5 482,-993.5 482,-963.5 310,-963.5"/>
<text text-anchor="start" x="316.6564" y="-974.9" font-family="Arial" font-size="14.00" fill="#000000">description </text>
<text text-anchor="start" x="388.2244" y="-974.9" font-family="Arial" font-size="14.00" fill="#666666">[varchar(255)]</text>
<polygon fill="none" stroke="#000000" points="310,-933.5 310,-963.5 482,-963.5 482,-933.5 310,-933.5"/>
<text text-anchor="start" x="317" y="-944.9" font-family="Arial" font-size="14.00" fill="#000000">created_at </text>
<text text-anchor="start" x="387.028" y="-944.9" font-family="Arial" font-size="14.00" fill="#666666">[datetime]</text>
</g>
<!-- tasks&#45;&gt;task_status -->
<g id="edge3" class="edge">
<title>tasks:task_status_id&#45;&gt;task_status:id</title>
<path fill="none" stroke="#000000" d="M492.2137,-1037.8461C606.0302,-1023.0327 616.7998,-761.5 497,-761.5"/>
<polygon fill="#000000" stroke="#000000" points="491.9796,-1037.861 481.7124,-1034.0092 486.9898,-1038.1805 482,-1038.5 482,-1038.5 482,-1038.5 486.9898,-1038.1805 482.2876,-1042.9908 491.9796,-1037.861 491.9796,-1037.861"/>
<text text-anchor="start" x="489.319" y="-1048.5" font-family="Arial" font-size="10.00" fill="#000000">FOREIGN KEY (task_status_id) REFERENCES task_status (id)</text>
</g>
</g>
</svg>
