<?xml version="1.0" encoding="UTF-8" standalone="no"?>
<!DOCTYPE svg PUBLIC "-//W3C//DTD SVG 1.1//EN"
 "http://www.w3.org/Graphics/SVG/1.1/DTD/svg11.dtd">
<!-- Generated by graphviz version 2.40.1 (20161225.0304)
 -->
<!-- Title: tasks Pages: 1 -->
<svg width="535pt" height="562pt"
 viewBox="0.00 0.00 535.00 562.00" xmlns="http://www.w3.org/2000/svg" xmlns:xlink="http://www.w3.org/1999/xlink">
<g id="graph0" class="graph" transform="scale(1 1) rotate(0) translate(4 558)">
<title>tasks</title>
<polygon fill="#ffffff" stroke="transparent" points="-4,4 -4,-558 531,-558 531,4 -4,4"/>
<!-- tasks -->
<g id="node1" class="node">
<title>tasks</title>
<polygon fill="#efefef" stroke="transparent" points="58,-472.5 58,-507.5 230,-507.5 230,-472.5 58,-472.5"/>
<polygon fill="none" stroke="#000000" points="58,-472.5 58,-507.5 230,-507.5 230,-472.5 58,-472.5"/>
<text text-anchor="start" x="74.3689" y="-485.3" font-family="Arial Bold" font-size="18.00" fill="#000000">tasks</text>
<text text-anchor="start" x="116.3773" y="-485.3" font-family="Arial" font-size="14.00" fill="#000000"> </text>
<text text-anchor="start" x="120.2679" y="-485.3" font-family="Arial" font-size="14.00" fill="#666666">[BASE TABLE]</text>
<polygon fill="none" stroke="#000000" points="58,-442.5 58,-472.5 230,-472.5 230,-442.5 58,-442.5"/>
<text text-anchor="start" x="65" y="-453.9" font-family="Arial" font-size="14.00" fill="#000000">id </text>
<text text-anchor="start" x="79.7798" y="-453.9" font-family="Arial" font-size="14.00" fill="#666666">[char(36)]</text>
<polygon fill="none" stroke="#000000" points="58,-412.5 58,-442.5 230,-442.5 230,-412.5 58,-412.5"/>
<text text-anchor="start" x="65" y="-423.9" font-family="Arial" font-size="14.00" fill="#000000">task_status_id </text>
<text text-anchor="start" x="158.3646" y="-423.9" font-family="Arial" font-size="14.00" fill="#666666">[char(36)]</text>
<polygon fill="none" stroke="#000000" points="58,-382.5 58,-412.5 230,-412.5 230,-382.5 58,-382.5"/>
<text text-anchor="start" x="65" y="-393.9" font-family="Arial" font-size="14.00" fill="#000000">name </text>
<text text-anchor="start" x="103.899" y="-393.9" font-family="Arial" font-size="14.00" fill="#666666">[varchar(50)]</text>
<polygon fill="none" stroke="#000000" points="58,-352.5 58,-382.5 230,-382.5 230,-352.5 58,-352.5"/>
<text text-anchor="start" x="64.6564" y="-363.9" font-family="Arial" font-size="14.00" fill="#000000">description </text>
<text text-anchor="start" x="136.2244" y="-363.9" font-family="Arial" font-size="14.00" fill="#666666">[varchar(255)]</text>
<polygon fill="none" stroke="#000000" points="58,-322.5 58,-352.5 230,-352.5 230,-322.5 58,-322.5"/>
<text text-anchor="start" x="65" y="-333.9" font-family="Arial" font-size="14.00" fill="#000000">created_at </text>
<text text-anchor="start" x="135.028" y="-333.9" font-family="Arial" font-size="14.00" fill="#666666">[datetime]</text>
<polygon fill="none" stroke="#000000" stroke-width="3" points="56.5,-321.5 56.5,-509.5 231.5,-509.5 231.5,-321.5 56.5,-321.5"/>
</g>
<!-- task_status -->
<g id="node2" class="node">
<title>task_status</title>
<polygon fill="#efefef" stroke="transparent" points="43,-162.5 43,-197.5 245,-197.5 245,-162.5 43,-162.5"/>
<polygon fill="none" stroke="#000000" points="43,-162.5 43,-197.5 245,-197.5 245,-162.5 43,-162.5"/>
<text text-anchor="start" x="49.8574" y="-175.3" font-family="Arial Bold" font-size="18.00" fill="#000000">task_status</text>
<text text-anchor="start" x="140.8888" y="-175.3" font-family="Arial" font-size="14.00" fill="#000000"> </text>
<text text-anchor="start" x="144.7794" y="-175.3" font-family="Arial" font-size="14.00" fill="#666666">[BASE TABLE]</text>
<polygon fill="none" stroke="#000000" points="43,-132.5 43,-162.5 245,-162.5 245,-132.5 43,-132.5"/>
<text text-anchor="start" x="50" y="-143.9" font-family="Arial" font-size="14.00" fill="#000000">id </text>
<text text-anchor="start" x="64.7798" y="-143.9" font-family="Arial" font-size="14.00" fill="#666666">[char(36)]</text>
<polygon fill="none" stroke="#000000" points="43,-102.5 43,-132.5 245,-132.5 245,-102.5 43,-102.5"/>
<text text-anchor="start" x="50" y="-113.9" font-family="Arial" font-size="14.00" fill="#000000">dashboard_id </text>
<text text-anchor="start" x="138.7012" y="-113.9" font-family="Arial" font-size="14.00" fill="#666666">[char(36)]</text>
<polygon fill="none" stroke="#000000" points="43,-72.5 43,-102.5 245,-102.5 245,-72.5 43,-72.5"/>
<text text-anchor="start" x="50" y="-83.9" font-family="Arial" font-size="14.00" fill="#000000">name </text>
<text text-anchor="start" x="88.899" y="-83.9" font-family="Arial" font-size="14.00" fill="#666666">[varchar(50)]</text>
<polygon fill="none" stroke="#000000" points="43,-42.5 43,-72.5 245,-72.5 245,-42.5 43,-42.5"/>
<text text-anchor="start" x="50" y="-53.9" font-family="Arial" font-size="14.00" fill="#000000">deleted_at </text>
<text text-anchor="start" x="119.2566" y="-53.9" font-family="Arial" font-size="14.00" fill="#666666">[datetime]</text>
</g>
<!-- tasks&#45;&gt;task_status -->
<g id="edge1" class="edge">
<title>tasks:task_status_id&#45;&gt;task_status:id</title>
<path fill="none" stroke="#000000" d="M239.7936,-425.0794C293.7209,-397.7124 303.9038,-147.5 245,-147.5"/>
<polygon fill="#000000" stroke="#000000" points="239.7079,-425.1005 228.9202,-423.1315 234.8539,-426.3002 230,-427.5 230,-427.5 230,-427.5 234.8539,-426.3002 231.0798,-431.8685 239.7079,-425.1005 239.7079,-425.1005"/>
<text text-anchor="start" x="237.319" y="-437.5" font-family="Arial" font-size="10.00" fill="#000000">FOREIGN KEY (task_status_id) REFERENCES task_status (id)</text>
</g>
</g>
</svg>
