<?xml version="1.0" encoding="UTF-8" standalone="no"?>
<!DOCTYPE svg PUBLIC "-//W3C//DTD SVG 1.1//EN"
 "http://www.w3.org/Graphics/SVG/1.1/DTD/svg11.dtd">
<!-- Generated by graphviz version 2.40.1 (20161225.0304)
 -->
<!-- Title: task_status Pages: 1 -->
<svg width="787pt" height="899pt"
 viewBox="0.00 0.00 787.00 899.00" xmlns="http://www.w3.org/2000/svg" xmlns:xlink="http://www.w3.org/1999/xlink">
<g id="graph0" class="graph" transform="scale(1 1) rotate(0) translate(4 895)">
<title>task_status</title>
<polygon fill="#ffffff" stroke="transparent" points="-4,4 -4,-895 783,-895 783,4 -4,4"/>
<!-- task_status -->
<g id="node1" class="node">
<title>task_status</title>
<polygon fill="#efefef" stroke="transparent" points="295,-502.5 295,-537.5 497,-537.5 497,-502.5 295,-502.5"/>
<polygon fill="none" stroke="#000000" points="295,-502.5 295,-537.5 497,-537.5 497,-502.5 295,-502.5"/>
<text text-anchor="start" x="301.8574" y="-515.3" font-family="Arial Bold" font-size="18.00" fill="#000000">task_status</text>
<text text-anchor="start" x="392.8888" y="-515.3" font-family="Arial" font-size="14.00" fill="#000000"> </text>
<text text-anchor="start" x="396.7794" y="-515.3" font-family="Arial" font-size="14.00" fill="#666666">[BASE TABLE]</text>
<polygon fill="none" stroke="#000000" points="295,-472.5 295,-502.5 497,-502.5 497,-472.5 295,-472.5"/>
<text text-anchor="start" x="302" y="-483.9" font-family="Arial" font-size="14.00" fill="#000000">id </text>
<text text-anchor="start" x="316.7798" y="-483.9" font-family="Arial" font-size="14.00" fill="#666666">[char(36)]</text>
<polygon fill="none" stroke="#000000" points="295,-442.5 295,-472.5 497,-472.5 497,-442.5 295,-442.5"/>
<text text-anchor="start" x="302" y="-453.9" font-family="Arial" font-size="14.00" fill="#000000">dashboard_id </text>
<text text-anchor="start" x="390.7012" y="-453.9" font-family="Arial" font-size="14.00" fill="#666666">[char(36)]</text>
<polygon fill="none" stroke="#000000" points="295,-412.5 295,-442.5 497,-442.5 497,-412.5 295,-412.5"/>
<text text-anchor="start" x="302" y="-423.9" font-family="Arial" font-size="14.00" fill="#000000">name </text>
<text text-anchor="start" x="340.899" y="-423.9" font-family="Arial" font-size="14.00" fill="#666666">[varchar(50)]</text>
<polygon fill="none" stroke="#000000" points="295,-382.5 295,-412.5 497,-412.5 497,-382.5 295,-382.5"/>
<text text-anchor="start" x="302" y="-393.9" font-family="Arial" font-size="14.00" fill="#000000">deleted_at </text>
<text text-anchor="start" x="371.2566" y="-393.9" font-family="Arial" font-size="14.00" fill="#666666">[datetime]</text>
<polygon fill="none" stroke="#000000" stroke-width="3" points="293.5,-381.5 293.5,-539.5 498.5,-539.5 498.5,-381.5 293.5,-381.5"/>
</g>
<!-- dashboards -->
<g id="node3" class="node">
<title>dashboards</title>
<polygon fill="#efefef" stroke="transparent" points="293,-222.5 293,-257.5 498,-257.5 498,-222.5 293,-222.5"/>
<polygon fill="none" stroke="#000000" points="293,-222.5 293,-257.5 498,-257.5 498,-222.5 293,-222.5"/>
<text text-anchor="start" x="299.8553" y="-235.3" font-family="Arial Bold" font-size="18.00" fill="#000000">dashboards</text>
<text text-anchor="start" x="393.8909" y="-235.3" font-family="Arial" font-size="14.00" fill="#000000"> </text>
<text text-anchor="start" x="397.7815" y="-235.3" font-family="Arial" font-size="14.00" fill="#666666">[BASE TABLE]</text>
<polygon fill="none" stroke="#000000" points="293,-192.5 293,-222.5 498,-222.5 498,-192.5 293,-192.5"/>
<text text-anchor="start" x="300" y="-203.9" font-family="Arial" font-size="14.00" fill="#000000">id </text>
<text text-anchor="start" x="314.7798" y="-203.9" font-family="Arial" font-size="14.00" fill="#666666">[char(36)]</text>
<polygon fill="none" stroke="#000000" points="293,-162.5 293,-192.5 498,-192.5 498,-162.5 293,-162.5"/>
<text text-anchor="start" x="300" y="-173.9" font-family="Arial" font-size="14.00" fill="#000000">user_id </text>
<text text-anchor="start" x="349.7882" y="-173.9" font-family="Arial" font-size="14.00" fill="#666666">[char(36)]</text>
<polygon fill="none" stroke="#000000" points="293,-132.5 293,-162.5 498,-162.5 498,-132.5 293,-132.5"/>
<text text-anchor="start" x="300" y="-143.9" font-family="Arial" font-size="14.00" fill="#000000">name </text>
<text text-anchor="start" x="338.899" y="-143.9" font-family="Arial" font-size="14.00" fill="#666666">[varchar(50)]</text>
<polygon fill="none" stroke="#000000" points="293,-102.5 293,-132.5 498,-132.5 498,-102.5 293,-102.5"/>
<text text-anchor="start" x="300" y="-113.9" font-family="Arial" font-size="14.00" fill="#000000">description </text>
<text text-anchor="start" x="371.568" y="-113.9" font-family="Arial" font-size="14.00" fill="#666666">[varchar(255)]</text>
<polygon fill="none" stroke="#000000" points="293,-72.5 293,-102.5 498,-102.5 498,-72.5 293,-72.5"/>
<text text-anchor="start" x="300" y="-83.9" font-family="Arial" font-size="14.00" fill="#000000">created_at </text>
<text text-anchor="start" x="370.028" y="-83.9" font-family="Arial" font-size="14.00" fill="#666666">[datetime]</text>
<polygon fill="none" stroke="#000000" points="293,-42.5 293,-72.5 498,-72.5 498,-42.5 293,-42.5"/>
<text text-anchor="start" x="300" y="-53.9" font-family="Arial" font-size="14.00" fill="#000000">deleted_at </text>
<text text-anchor="start" x="369.2566" y="-53.9" font-family="Arial" font-size="14.00" fill="#666666">[datetime]</text>
</g>
<!-- task_status&#45;&gt;dashboards -->
<g id="edge2" class="edge">
<title>task_status:dashboard_id&#45;&gt;dashboards:id</title>
<path fill="none" stroke="#000000" d="M284.8321,-456.7053C234.7411,-448.3205 253.6112,-375.638 286,-337 344.8641,-266.7785 430.1359,-371.2215 489,-301 515.6958,-269.1535 530.5556,-207.5 498,-207.5"/>
<polygon fill="#000000" stroke="#000000" points="285.0304,-456.7207 294.6493,-461.9863 290.0152,-457.1104 295,-457.5 295,-457.5 295,-457.5 290.0152,-457.1104 295.3507,-453.0137 285.0304,-456.7207 285.0304,-456.7207"/>
<text text-anchor="start" x="7.15" y="-467.5" font-family="Arial" font-size="10.00" fill="#000000">FOREIGN KEY (dashboard_id) REFERENCES dashboards (id)</text>
</g>
<!-- task_status&#45;&gt;dashboards -->
<g id="edge3" class="edge">
<title>task_status:dashboard_id&#45;&gt;dashboards:id</title>
<path fill="none" stroke="#000000" stroke-dasharray="5,2" d="M284.7124,-455.7452C253.9218,-443.8552 272.6134,-374.4424 304,-337 362.8641,-266.7785 448.1359,-371.2215 507,-301 533.6436,-269.2157 548.4975,-207.7407 498.2955,-207.5007"/>
<polygon fill="#000000" stroke="#000000" points="284.8892,-455.7761 293.9643,-461.9318 289.8144,-456.6376 294.7397,-457.4991 294.7397,-457.4991 294.7397,-457.4991 289.8144,-456.6376 295.515,-453.0664 284.8892,-455.7761 284.8892,-455.7761"/>
<text text-anchor="start" x="205.0642" y="-441.4991" font-family="Arial" font-size="10.00" fill="#000000">Additional Relation</text>
</g>
<!-- tasks -->
<g id="node2" class="node">
<title>tasks</title>
<polygon fill="#efefef" stroke="transparent" points="310,-812.5 310,-847.5 482,-847.5 482,-812.5 310,-812.5"/>
<polygon fill="none" stroke="#000000" points="310,-812.5 310,-847.5 482,-847.5 482,-812.5 310,-812.5"/>
<text text-anchor="start" x="326.3689" y="-825.3" font-family="Arial Bold" font-size="18.00" fill="#000000">tasks</text>
<text text-anchor="start" x="368.3773" y="-825.3" font-family="Arial" font-size="14.00" fill="#000000"> </text>
<text text-anchor="start" x="372.2679" y="-825.3" font-family="Arial" font-size="14.00" fill="#666666">[BASE TABLE]</text>
<polygon fill="none" stroke="#000000" points="310,-782.5 310,-812.5 482,-812.5 482,-782.5 310,-782.5"/>
<text text-anchor="start" x="317" y="-793.9" font-family="Arial" font-size="14.00" fill="#000000">id </text>
<text text-anchor="start" x="331.7798" y="-793.9" font-family="Arial" font-size="14.00" fill="#666666">[char(36)]</text>
<polygon fill="none" stroke="#000000" points="310,-752.5 310,-782.5 482,-782.5 482,-752.5 310,-752.5"/>
<text text-anchor="start" x="317" y="-763.9" font-family="Arial" font-size="14.00" fill="#000000">task_status_id </text>
<text text-anchor="start" x="410.3646" y="-763.9" font-family="Arial" font-size="14.00" fill="#666666">[char(36)]</text>
<polygon fill="none" stroke="#000000" points="310,-722.5 310,-752.5 482,-752.5 482,-722.5 310,-722.5"/>
<text text-anchor="start" x="317" y="-733.9" font-family="Arial" font-size="14.00" fill="#000000">name </text>
<text text-anchor="start" x="355.899" y="-733.9" font-family="Arial" font-size="14.00" fill="#666666">[varchar(50)]</text>
<polygon fill="none" stroke="#000000" points="310,-692.5 310,-722.5 482,-722.5 482,-692.5 310,-692.5"/>
<text text-anchor="start" x="316.6564" y="-703.9" font-family="Arial" font-size="14.00" fill="#000000">description </text>
<text text-anchor="start" x="388.2244" y="-703.9" font-family="Arial" font-size="14.00" fill="#666666">[varchar(255)]</text>
<polygon fill="none" stroke="#000000" points="310,-662.5 310,-692.5 482,-692.5 482,-662.5 310,-662.5"/>
<text text-anchor="start" x="317" y="-673.9" font-family="Arial" font-size="14.00" fill="#000000">created_at </text>
<text text-anchor="start" x="387.028" y="-673.9" font-family="Arial" font-size="14.00" fill="#666666">[datetime]</text>
</g>
<!-- tasks&#45;&gt;task_status -->
<g id="edge1" class="edge">
<title>tasks:task_status_id&#45;&gt;task_status:id</title>
<path fill="none" stroke="#000000" d="M491.7936,-765.0794C545.7209,-737.7124 555.9038,-487.5 497,-487.5"/>
<polygon fill="#000000" stroke="#000000" points="491.7079,-765.1005 480.9202,-763.1315 486.8539,-766.3002 482,-767.5 482,-767.5 482,-767.5 486.8539,-766.3002 483.0798,-771.8685 491.7079,-765.1005 491.7079,-765.1005"/>
<text text-anchor="start" x="489.319" y="-777.5" font-family="Arial" font-size="10.00" fill="#000000">FOREIGN KEY (task_status_id) REFERENCES task_status (id)</text>
</g>
</g>
</svg>
