<?xml version="1.0" encoding="UTF-8" standalone="no"?>
<!DOCTYPE svg PUBLIC "-//W3C//DTD SVG 1.1//EN"
 "http://www.w3.org/Graphics/SVG/1.1/DTD/svg11.dtd">
<!-- Generated by graphviz version 2.40.1 (20161225.0304)
 -->
<!-- Title: users Pages: 1 -->
<svg width="505pt" height="592pt"
 viewBox="0.00 0.00 505.00 592.00" xmlns="http://www.w3.org/2000/svg" xmlns:xlink="http://www.w3.org/1999/xlink">
<g id="graph0" class="graph" transform="scale(1 1) rotate(0) translate(4 588)">
<title>users</title>
<polygon fill="#ffffff" stroke="transparent" points="-4,4 -4,-588 501,-588 501,4 -4,4"/>
<!-- users -->
<g id="node1" class="node">
<title>users</title>
<polygon fill="#efefef" stroke="transparent" points="46,-165.5 46,-200.5 264,-200.5 264,-165.5 46,-165.5"/>
<polygon fill="none" stroke="#000000" points="46,-165.5 46,-200.5 264,-200.5 264,-165.5 46,-165.5"/>
<text text-anchor="start" x="84.3708" y="-178.3" font-family="Arial Bold" font-size="18.00" fill="#000000">users</text>
<text text-anchor="start" x="128.3754" y="-178.3" font-family="Arial" font-size="14.00" fill="#000000"> </text>
<text text-anchor="start" x="132.266" y="-178.3" font-family="Arial" font-size="14.00" fill="#666666">[BASE TABLE]</text>
<polygon fill="none" stroke="#000000" points="46,-135.5 46,-165.5 264,-165.5 264,-135.5 46,-135.5"/>
<text text-anchor="start" x="53" y="-146.9" font-family="Arial" font-size="14.00" fill="#000000">id </text>
<text text-anchor="start" x="67.7798" y="-146.9" font-family="Arial" font-size="14.00" fill="#666666">[char(36)]</text>
<polygon fill="none" stroke="#000000" points="46,-105.5 46,-135.5 264,-135.5 264,-105.5 46,-105.5"/>
<text text-anchor="start" x="53" y="-116.9" font-family="Arial" font-size="14.00" fill="#000000">name </text>
<text text-anchor="start" x="91.899" y="-116.9" font-family="Arial" font-size="14.00" fill="#666666">[varchar(36)]</text>
<polygon fill="none" stroke="#000000" points="46,-75.5 46,-105.5 264,-105.5 264,-75.5 46,-75.5"/>
<text text-anchor="start" x="52.6985" y="-86.9" font-family="Arial" font-size="14.00" fill="#000000">hashed_password </text>
<text text-anchor="start" x="170.1823" y="-86.9" font-family="Arial" font-size="14.00" fill="#666666">[varchar(255)]</text>
<polygon fill="none" stroke="#000000" points="46,-45.5 46,-75.5 264,-75.5 264,-45.5 46,-45.5"/>
<text text-anchor="start" x="53" y="-56.9" font-family="Arial" font-size="14.00" fill="#000000">deleted_at </text>
<text text-anchor="start" x="122.2566" y="-56.9" font-family="Arial" font-size="14.00" fill="#666666">[datetime]</text>
<polygon fill="none" stroke="#000000" stroke-width="3" points="44.5,-44.5 44.5,-202.5 265.5,-202.5 265.5,-44.5 44.5,-44.5"/>
</g>
<!-- dashboards -->
<g id="node2" class="node">
<title>dashboards</title>
<polygon fill="#efefef" stroke="transparent" points="52,-505.5 52,-540.5 257,-540.5 257,-505.5 52,-505.5"/>
<polygon fill="none" stroke="#000000" points="52,-505.5 52,-540.5 257,-540.5 257,-505.5 52,-505.5"/>
<text text-anchor="start" x="58.8553" y="-518.3" font-family="Arial Bold" font-size="18.00" fill="#000000">dashboards</text>
<text text-anchor="start" x="152.8909" y="-518.3" font-family="Arial" font-size="14.00" fill="#000000"> </text>
<text text-anchor="start" x="156.7815" y="-518.3" font-family="Arial" font-size="14.00" fill="#666666">[BASE TABLE]</text>
<polygon fill="none" stroke="#000000" points="52,-475.5 52,-505.5 257,-505.5 257,-475.5 52,-475.5"/>
<text text-anchor="start" x="59" y="-486.9" font-family="Arial" font-size="14.00" fill="#000000">id </text>
<text text-anchor="start" x="73.7798" y="-486.9" font-family="Arial" font-size="14.00" fill="#666666">[char(36)]</text>
<polygon fill="none" stroke="#000000" points="52,-445.5 52,-475.5 257,-475.5 257,-445.5 52,-445.5"/>
<text text-anchor="start" x="59" y="-456.9" font-family="Arial" font-size="14.00" fill="#000000">user_id </text>
<text text-anchor="start" x="108.7882" y="-456.9" font-family="Arial" font-size="14.00" fill="#666666">[char(36)]</text>
<polygon fill="none" stroke="#000000" points="52,-415.5 52,-445.5 257,-445.5 257,-415.5 52,-415.5"/>
<text text-anchor="start" x="59" y="-426.9" font-family="Arial" font-size="14.00" fill="#000000">name </text>
<text text-anchor="start" x="97.899" y="-426.9" font-family="Arial" font-size="14.00" fill="#666666">[varchar(50)]</text>
<polygon fill="none" stroke="#000000" points="52,-385.5 52,-415.5 257,-415.5 257,-385.5 52,-385.5"/>
<text text-anchor="start" x="59" y="-396.9" font-family="Arial" font-size="14.00" fill="#000000">description </text>
<text text-anchor="start" x="130.568" y="-396.9" font-family="Arial" font-size="14.00" fill="#666666">[varchar(255)]</text>
<polygon fill="none" stroke="#000000" points="52,-355.5 52,-385.5 257,-385.5 257,-355.5 52,-355.5"/>
<text text-anchor="start" x="59" y="-366.9" font-family="Arial" font-size="14.00" fill="#000000">created_at </text>
<text text-anchor="start" x="129.028" y="-366.9" font-family="Arial" font-size="14.00" fill="#666666">[datetime]</text>
<polygon fill="none" stroke="#000000" points="52,-325.5 52,-355.5 257,-355.5 257,-325.5 52,-325.5"/>
<text text-anchor="start" x="59" y="-336.9" font-family="Arial" font-size="14.00" fill="#000000">deleted_at </text>
<text text-anchor="start" x="128.2566" y="-336.9" font-family="Arial" font-size="14.00" fill="#666666">[datetime]</text>
</g>
<!-- dashboards&#45;&gt;users -->
<g id="edge1" class="edge">
<title>dashboards:user_id&#45;&gt;users:id</title>
<path fill="none" stroke="#000000" d="M267.2509,-459.5477C323.8708,-448.2965 296.1932,-340.1122 248,-283 186.648,-210.2937 98.352,-319.7063 37,-247 9.3406,-214.2218 -5.8889,-150.5 46,-150.5"/>
<polygon fill="#000000" stroke="#000000" points="266.9571,-459.5749 256.5837,-456.0193 261.9786,-460.0374 257,-460.5 257,-460.5 257,-460.5 261.9786,-460.0374 257.4163,-464.9807 266.9571,-459.5749 266.9571,-459.5749"/>
<text text-anchor="start" x="263.945" y="-470.5" font-family="Arial" font-size="10.00" fill="#000000">FOREIGN KEY (user_id) REFERENCES users (id)</text>
</g>
<!-- dashboards&#45;&gt;users -->
<g id="edge2" class="edge">
<title>dashboards:user_id&#45;&gt;users:id</title>
<path fill="none" stroke="#000000" stroke-dasharray="5,2" d="M267.4563,-459.894C342.4983,-450.7659 314.7418,-340.7622 266,-283 204.648,-210.2937 116.352,-319.7063 55,-247 27.4486,-214.3498 12.2303,-150.9974 45.6051,-150.5029"/>
<polygon fill="#000000" stroke="#000000" points="267.2396,-459.9068 256.9904,-456.0076 262.2484,-460.2032 257.2572,-460.4997 257.2572,-460.4997 257.2572,-460.4997 262.2484,-460.2032 257.524,-464.9918 267.2396,-459.9068 267.2396,-459.9068"/>
<text text-anchor="start" x="264.5817" y="-444.4997" font-family="Arial" font-size="10.00" fill="#000000">Additional Relation</text>
</g>
</g>
</svg>
